<?xml version="1.0" encoding="UTF-8" standalone="no"?>
<!-- Created with Inkscape (http://www.inkscape.org/) -->

<svg
   width="210mm"
   height="297mm"
   viewBox="0 0 210 297"
   version="1.1"
   id="svg5"
   inkscape:version="1.1.1 (c3084ef, 2021-09-22)"
   sodipodi:docname="307logo_fixed.svg"
   xmlns:inkscape="http://www.inkscape.org/namespaces/inkscape"
   xmlns:sodipodi="http://sodipodi.sourceforge.net/DTD/sodipodi-0.dtd"
   xmlns="http://www.w3.org/2000/svg"
   xmlns:svg="http://www.w3.org/2000/svg">
  <sodipodi:namedview
     id="namedview7"
     pagecolor="#ffffff"
     bordercolor="#666666"
     borderopacity="1.0"
     inkscape:pageshadow="2"
     inkscape:pageopacity="0.0"
     inkscape:pagecheckerboard="0"
     inkscape:document-units="mm"
     showgrid="false"
     inkscape:zoom="0.49542003"
     inkscape:cx="689.31408"
     inkscape:cy="524.8072"
     inkscape:window-width="1440"
     inkscape:window-height="760"
     inkscape:window-x="0"
     inkscape:window-y="25"
     inkscape:window-maximized="0"
     inkscape:current-layer="layer1" />
  <defs
     id="defs2" />
  <g
     inkscape:label="Layer 1"
     inkscape:groupmode="layer"
     id="layer1">
    <g
       id="g6711">
      <g
         id="g5904"
         transform="translate(10.583334,-3.1750001)"
         style="fill:#000000">
        <rect
           style="fill:#000000;stroke-width:3.52777;paint-order:markers fill stroke"
           id="rect1666"
           width="37.760426"
           height="58.959259"
           x="10.10257"
           y="117.75291" />
        <rect
           style="fill:#000000;stroke-width:3.52777;paint-order:markers fill stroke"
           id="rect2762"
           width="38.158016"
           height="34.959137"
           x="9.5966263"
           y="190.1046" />
        <path
           id="rect2770"
           style="fill:#000000;stroke-width:13.3333;paint-order:markers fill stroke"
           d="m 100.25195,898.46484 v 166.87696 l 74.23828,-58.375 68.52735,58.375 V 898.46484 Z m 67.39649,19.90039 h 15.65039 v 53.47657 h -15.65039 z"
           transform="scale(0.26458333)" />
        <path
           id="rect2770-5"
           style="fill:#000000;stroke-width:13.3333;paint-order:markers fill stroke"
           d="m 452.72266,898.46484 v 166.87696 l 74.23828,-58.375 68.52734,58.375 V 898.46484 Z m 67.17382,19.90039 h 15.6504 v 53.47657 h -15.6504 z"
           transform="scale(0.26458333)" />
        <path
           style="fill:#000000;stroke:#000000;stroke-width:0.264583px;stroke-linecap:butt;stroke-linejoin:miter;stroke-opacity:1"
           d="m 9.5966263,225.06373 -0.027429,12.82316 C 14.055571,230.85896 21.7375,227.38164 30.218517,224.7922"
           id="path3193"
           sodipodi:nodetypes="ccc" />
        <g
           id="g4894"
           style="fill:#000000">
          <rect
             style="fill:#000000;stroke-width:3.52777;paint-order:markers fill stroke"
             id="rect1930"
             width="40.079044"
             height="41.403973"
             x="9.4724245"
             y="64.590195" />
          <rect
             style="fill:#000000;stroke-width:3.52777;paint-order:markers fill stroke"
             id="rect2060"
             width="134.31448"
             height="17.224054"
             x="30.804556"
             y="34.116875" />
          <path
             style="fill:#000000;stroke:#000000;stroke-width:0.264583px;stroke-linecap:butt;stroke-linejoin:miter;stroke-opacity:1"
             d="M 9.4724243,64.590194 C 8.5427909,49.67385 10.377843,36.393749 30.804556,34.116875 v 0"
             id="path2095"
             sodipodi:nodetypes="ccc" />
          <path
             style="fill:#000000;stroke:#000000;stroke-width:0.264583px;stroke-linecap:butt;stroke-linejoin:miter;stroke-opacity:1"
             d="m 165.11903,34.116875 c 10.40046,0.724788 10.23517,10.386214 0,17.224052"
             id="path2605"
             sodipodi:nodetypes="cc" />
          <path
             style="fill:#000000;stroke:#000000;stroke-width:0.264583px;stroke-linecap:butt;stroke-linejoin:miter;stroke-opacity:1"
             d="M 9.4724243,64.590194 30.72216,64.466173 c -5.57257,-2.324711 -5.915545,-9.74432 0.0824,-13.125246 V 34.116875 L 9.4724243,64.590194"
             id="path3764"
             sodipodi:nodetypes="ccccc" />
        </g>
        <g
           id="g5484"
           style="fill:#000000">
          <g
             id="g5519"
             style="fill:#000000">
            <path
               id="rect4972"
               style="fill:#000000;stroke-width:13.4607;paint-order:markers fill stroke"
               d="M 229.01367,242.3418 V 856.3125 H 634.76758 V 242.3418 Z m 124.55274,143.15429 39.59179,36.66211 -38.7207,40.86719 -39.58984,-36.66211 z m 176.4082,0 39.58984,36.66016 -38.71875,40.86719 -39.59179,-36.66016 z m -82.36133,4.50196 a 21.357672,27.265116 0 0 1 21.35742,27.26367 21.357672,27.265116 0 0 1 -21.35742,27.26562 21.357672,27.265116 0 0 1 -21.35742,-27.26562 21.357672,27.265116 0 0 1 21.35742,-27.26367 z"
               transform="scale(0.26458333)" />
            <rect
               style="fill:#000000;stroke-width:3.52777;paint-order:markers fill stroke"
               id="rect5076"
               width="17.453493"
               height="140.94518"
               x="155.43488"
               y="76.070877" />
            <path
               style="fill:#000000;stroke:#000000;stroke-width:0.264583px;stroke-linecap:butt;stroke-linejoin:miter;stroke-opacity:1"
               d="m 167.9487,64.11978 c 0,0 1.40245,0.244783 2.72148,1.855624 1.32251,1.615111 2.56116,4.60353 2.21819,10.095473 l -6.58623,3e-6 z"
               id="path5111"
               sodipodi:nodetypes="csccc" />
            <path
               style="fill:#000000;stroke:#000000;stroke-width:0.264583px;stroke-linecap:butt;stroke-linejoin:miter;stroke-opacity:1"
               d="m 172.88837,217.01605 c 0.11235,6.31028 -1.92816,8.79326 -4.93967,9.55002 l -8.23278,-15.1483 z"
               id="path5113"
               sodipodi:nodetypes="cccc" />
          </g>
        </g>
      </g>
      <g
         id="g4912"
         transform="translate(2.407414,-1.1742339)">
        <g
           id="g5508">
          <g
             id="g5513" />
        </g>
      </g>
      <rect
         style="fill:#000000;stroke-width:3.52777;paint-order:markers fill stroke"
         id="rect6591"
         width="18.809"
         height="0.72806406"
         x="41.305492"
         y="61.130001" />
    </g>
  </g>
</svg>
